<svg xmlns="http://www.w3.org/2000/svg" viewBox="0 0 24 24"><g data-name="Windows Explorer"><path d="M8.5,4h-6a.5.5,0,0,0,0,1h6a.5.5,0,0,0,0-1Z"/><path fill="#303c42" d="M22,4H11.71L9.85,2.15A.5.5,0,0,0,9.5,2H2A2,2,0,0,0,0,4V19a2,2,0,0,0,2,2H4v.5a.5.5,0,0,0,.5.5h3a.5.5,0,0,0,.5-.5V21h8v.5a.5.5,0,0,0,.5.5h3a.5.5,0,0,0,.5-.5V21h2a2,2,0,0,0,2-2V6A2,2,0,0,0,22,4ZM1,4A1,1,0,0,1,2,3H9.29l1.5,1.5L9.29,6H1ZM19,21H17V15.5a.5.5,0,0,0-.5-.5h-9a.5.5,0,0,0-.5.5V21H5V14a1,1,0,0,1,1-1H18a1,1,0,0,1,1,1Z" style="fill:#FF80EF"/></g></svg>
